<?xml version="1.0" ?><svg viewBox="0 0 25 25" xmlns="http://www.w3.org/2000/svg"><title/><g data-name="1" id="_1"><path d="M3.71,3H6.5a.5.5,0,0,0,0-1h-4a.5.5,0,0,0-.5.5v4a.5.5,0,0,0,1,0V3.71l8.15,8.15a.5.5,0,0,0,.71-.71Z"/><path d="M23,2.31A.5.5,0,0,0,22.5,2h-4a.5.5,0,0,0,0,1h2.79l-8.15,8.15a.5.5,0,1,0,.71.71L22,3.71V6.5a.5.5,0,0,0,1,0v-4A.5.5,0,0,0,23,2.31Z"/><path d="M11.15,13.15,3,21.29V18.5a.5.5,0,0,0-1,0v4a.5.5,0,0,0,.5.5h4a.5.5,0,0,0,0-1H3.71l8.15-8.15a.5.5,0,0,0-.71-.71Z"/><path d="M22.5,18a.5.5,0,0,0-.5.5v2.79l-8.15-8.15a.5.5,0,0,0-.71.71L21.29,22H18.5a.5.5,0,0,0,0,1h4a.5.5,0,0,0,.5-.5v-4A.5.5,0,0,0,22.5,18Z"/></g></svg>